<?xml version="1.0" encoding="UTF-8" standalone="no"?>
<!-- Created with Inkscape (http://www.inkscape.org/) -->

<svg
   xmlns:osb="http://www.openswatchbook.org/uri/2009/osb"
   xmlns:dc="http://purl.org/dc/elements/1.1/"
   xmlns:cc="http://creativecommons.org/ns#"
   xmlns:rdf="http://www.w3.org/1999/02/22-rdf-syntax-ns#"
   xmlns:svg="http://www.w3.org/2000/svg"
   xmlns="http://www.w3.org/2000/svg"
   xmlns:sodipodi="http://sodipodi.sourceforge.net/DTD/sodipodi-0.dtd"
   xmlns:inkscape="http://www.inkscape.org/namespaces/inkscape"
   width="110.5788mm"
   height="110.5788mm"
   viewBox="0 0 110.57879 110.5788"
   version="1.1"
   id="svg8"
   sodipodi:docname="favicon.svg"
   inkscape:version="0.92.4 5da689c313, 2019-01-14">
  <defs
     id="defs2">
    <inkscape:path-effect
       pattern-nodetypes="ccccc"
       fuse_tolerance="0"
       vertical_pattern="false"
       prop_units="false"
       tang_offset="0"
       normal_offset="0"
       spacing="0"
       scale_y_rel="false"
       prop_scale="1"
       copytype="single_stretched"
       pattern="m 93.449791,43.685968 c 0.458362,-0.200011 2.197599,-1.367771 7.041489,-1.478923 4.20607,-0.01667 5.85195,1.309107 6.43531,1.475784 -0.6167,0.133342 -2.90543,0.845035 -6.52102,0.944391 -4.690467,0.0049 -6.530752,-0.841249 -6.955779,-0.941252 z"
       is_visible="true"
       id="path-effect7241"
       effect="skeletal" />
    <inkscape:path-effect
       only_selected="false"
       apply_with_weight="true"
       apply_no_weight="true"
       helper_size="0"
       steps="2"
       weight="33.333333"
       is_visible="true"
       id="path-effect7239"
       effect="bspline" />
    <inkscape:path-effect
       pattern-nodetypes="ccccc"
       fuse_tolerance="0"
       vertical_pattern="false"
       prop_units="false"
       tang_offset="0"
       normal_offset="0"
       spacing="0"
       scale_y_rel="false"
       prop_scale="1"
       copytype="single_stretched"
       pattern="m 94.668764,40.274733 c 0.458362,-0.200011 4.493805,-1.037042 9.337696,-1.148194 4.20607,-0.01667 8.35604,1.072872 8.9394,1.239549 -0.6167,0.133342 -5.12604,1.043472 -8.74163,1.142828 -4.690466,0.0049 -9.110439,-1.13418 -9.535466,-1.234183 z"
       is_visible="true"
       id="path-effect7191"
       effect="skeletal" />
    <inkscape:path-effect
       only_selected="false"
       apply_with_weight="true"
       apply_no_weight="true"
       helper_size="0"
       steps="2"
       weight="33.333333"
       is_visible="true"
       id="path-effect7189"
       effect="bspline" />
    <inkscape:path-effect
       effect="skeletal"
       id="path-effect7185"
       is_visible="true"
       pattern="m 93.449791,43.685968 c 0.458362,-0.200011 2.008611,-3.91911 6.852499,-4.030262 4.20607,-0.01667 6.04094,3.860446 6.6243,4.027123 -0.6167,0.133342 -2.81094,3.018398 -6.42653,3.117754 -4.690463,0.0049 -6.625242,-3.014612 -7.050269,-3.114615 z"
       copytype="single_stretched"
       prop_scale="1"
       scale_y_rel="false"
       spacing="0"
       normal_offset="0"
       tang_offset="0"
       prop_units="false"
       vertical_pattern="false"
       fuse_tolerance="0"
       pattern-nodetypes="ccccc" />
    <inkscape:path-effect
       effect="bspline"
       id="path-effect7183"
       is_visible="true"
       weight="33.333333"
       steps="2"
       helper_size="0"
       apply_no_weight="true"
       apply_with_weight="true"
       only_selected="false" />
    <inkscape:path-effect
       pattern-nodetypes="ccccc"
       fuse_tolerance="0"
       vertical_pattern="false"
       prop_units="false"
       tang_offset="0"
       normal_offset="0"
       spacing="0"
       scale_y_rel="false"
       prop_scale="1"
       copytype="single_stretched"
       pattern="m 93.449791,43.685968 c 0.458362,-0.200011 2.008611,-3.91911 6.852499,-4.030262 4.20607,-0.01667 6.04094,3.860446 6.6243,4.027123 -0.6167,0.133342 -2.81094,3.018398 -6.42653,3.117754 -4.690463,0.0049 -6.625242,-3.014612 -7.050269,-3.114615 z"
       is_visible="true"
       id="path-effect6669"
       effect="skeletal" />
    <inkscape:path-effect
       only_selected="false"
       apply_with_weight="true"
       apply_no_weight="true"
       helper_size="0"
       steps="2"
       weight="33.333333"
       is_visible="true"
       id="path-effect6667"
       effect="bspline" />
    <inkscape:path-effect
       effect="skeletal"
       id="path-effect6647"
       is_visible="true"
       pattern="m 93.449791,43.685968 c 0.458362,-0.200011 2.197599,-1.367771 7.041489,-1.478923 4.20607,-0.01667 5.85195,1.309107 6.43531,1.475784 -0.6167,0.133342 -2.90543,0.845035 -6.52102,0.944391 -4.690467,0.0049 -6.530752,-0.841249 -6.955779,-0.941252 z"
       copytype="single_stretched"
       prop_scale="1"
       scale_y_rel="false"
       spacing="0"
       normal_offset="0"
       tang_offset="0"
       prop_units="false"
       vertical_pattern="false"
       fuse_tolerance="0"
       pattern-nodetypes="ccccc" />
    <inkscape:path-effect
       effect="bspline"
       id="path-effect6629"
       is_visible="true"
       weight="33.333333"
       steps="2"
       helper_size="0"
       apply_no_weight="true"
       apply_with_weight="true"
       only_selected="false" />
    <inkscape:path-effect
       effect="skeletal"
       id="path-effect2904"
       is_visible="true"
       pattern="M 0,0 H 1"
       copytype="single_stretched"
       prop_scale="1"
       scale_y_rel="false"
       spacing="0"
       normal_offset="0"
       tang_offset="0"
       prop_units="false"
       vertical_pattern="false"
       fuse_tolerance="0" />
    <linearGradient
       id="linearGradient2900"
       osb:paint="solid">
      <stop
         style="stop-color:#aa4400;stop-opacity:1;"
         offset="0"
         id="stop2898" />
    </linearGradient>
    <linearGradient
       id="linearGradient1437">
      <stop
         id="stop1443"
         offset="0"
         style="stop-color:#000000;stop-opacity:1;" />
      <stop
         id="stop1445"
         offset="1"
         style="stop-color:#aa4400;stop-opacity:0;" />
    </linearGradient>
    <inkscape:path-effect
       effect="bspline"
       id="path-effect832"
       is_visible="true"
       weight="33.333333"
       steps="2"
       helper_size="0"
       apply_no_weight="true"
       apply_with_weight="true"
       only_selected="false" />
    <inkscape:path-effect
       effect="bspline"
       id="path-effect828"
       is_visible="true"
       weight="33.333333"
       steps="2"
       helper_size="0"
       apply_no_weight="true"
       apply_with_weight="true"
       only_selected="false" />
  </defs>
  <sodipodi:namedview
     id="base"
     pagecolor="#ffffff"
     bordercolor="#666666"
     borderopacity="1.0"
     inkscape:pageopacity="0.0"
     inkscape:pageshadow="2"
     inkscape:zoom="0.98994949"
     inkscape:cx="407.96503"
     inkscape:cy="-64.124863"
     inkscape:document-units="mm"
     inkscape:current-layer="layer1"
     showgrid="false"
     inkscape:snap-bbox="true"
     inkscape:bbox-paths="true"
     inkscape:bbox-nodes="true"
     inkscape:snap-bbox-edge-midpoints="true"
     inkscape:snap-bbox-midpoints="true"
     inkscape:window-width="2558"
     inkscape:window-height="1414"
     inkscape:window-x="0"
     inkscape:window-y="24"
     inkscape:window-maximized="1"
     fit-margin-top="0"
     fit-margin-left="0"
     fit-margin-right="0"
     fit-margin-bottom="0" />
  <metadata
     id="metadata5">
    <rdf:RDF>
      <cc:Work
         rdf:about="">
        <dc:format>image/svg+xml</dc:format>
        <dc:type
           rdf:resource="http://purl.org/dc/dcmitype/StillImage" />
        <dc:title></dc:title>
      </cc:Work>
    </rdf:RDF>
  </metadata>
  <g
     inkscape:label="Layer 1"
     inkscape:groupmode="layer"
     id="layer1"
     transform="translate(-45.748431,14.902672)">
    <rect
       style="opacity:1;fill:#ffffff;fill-opacity:1;fill-rule:evenodd;stroke:none;stroke-width:11.80000019;stroke-linecap:round;stroke-linejoin:round;stroke-miterlimit:4;stroke-dasharray:none;stroke-dashoffset:0;stroke-opacity:1"
       id="rect4623"
       width="111.71867"
       height="111.71867"
       x="45.481163"
       y="-14.97346" />
    <g
       id="g4621"
       transform="translate(0,-22.225001)">
      <path
         style="fill:#c5b358;fill-opacity:0;stroke:#c5b358;stroke-width:5;stroke-linecap:butt;stroke-linejoin:miter;stroke-miterlimit:4;stroke-dasharray:none;stroke-opacity:0"
         d="m 110.52589,56.711025 c -0.13133,0.156767 6.37323,-7.764406 11.45619,-12.485814 2.66095,-2.482851 6.593,-5.959447 11.42274,-6.941715 3.3988,-0.664819 7.251,0.200642 10.46396,2.503919 2.5703,1.819743 4.93817,4.588474 5.71207,8.062112 0.60466,2.930749 -0.29135,5.977971 -1.87179,8.602087 -1.71585,2.728873 -3.91372,4.994608 -6.2026,7.372888 2.17669,2.19718 4.58589,4.566915 6.44312,7.32886 1.62695,2.565441 2.77642,5.741195 2.39705,9.047045 -0.21016,1.697059 -0.80061,3.373731 -1.77803,4.842935 -1.046,1.568269 -2.55987,2.844781 -4.35781,3.579211 -2.24495,0.889819 -4.70578,0.942029 -7.01218,0.486326 -3.4444,-0.66837 -6.6192,-2.216217 -9.57769,-4.062867 -4.29384,-2.664868 -8.17771,-5.851737 -12.08973,-9.195857 -4.58163,-3.912108 -8.95567,-7.923574 -13.53261,-12.095652 -1.83315,-1.670752 -3.691209,-3.365362 -5.551178,-5.039805 -2.644898,-2.386569 -5.298658,-4.738779 -7.999518,-7.025509 -3.912299,-3.308202 -7.815693,-6.48052 -12.070172,-9.044955 -2.971566,-1.782106 -6.07266,-3.249588 -9.321472,-3.829943 -2.216033,-0.390622 -4.485194,-0.374132 -6.472469,0.365538 -2.986644,1.069044 -5.295359,3.910593 -5.821085,6.97905 -0.52992,2.736312 0.622921,5.662133 2.189362,8.129107 1.904602,3.208071 4.495158,6.047734 6.927206,8.783695 -2.959582,2.496632 -5.737376,4.717252 -7.998016,7.471956 -0.951068,1.090864 -1.772093,2.235662 -2.263109,3.49087 -0.458365,1.161465 -0.612588,2.429278 -0.387438,3.607991 0.560674,3.194961 3.139804,5.795124 5.728364,7.610647 3.460614,2.380645 7.496386,3.424183 11.159661,2.940777 5.019188,-0.635448 9.493801,-3.886533 12.643017,-6.367408 5.405701,-4.269818 12.938839,-12.013931 13.089999,-12.164356 -0.296814,0.313778 -7.392447,8.054572 -12.783614,12.541147 -3.128423,2.611551 -7.571295,5.991558 -12.83092,6.817727 -3.899858,0.592225 -8.199363,-0.407854 -11.894739,-2.851804 -2.80802,-1.823303 -5.600757,-4.594295 -6.400249,-8.270534 -0.295478,-1.446232 -0.148981,-2.968519 0.375889,-4.363505 0,0 4e-6,-9e-6 4e-6,-9e-6 0.558318,-1.473757 1.442664,-2.779638 2.445079,-3.954788 2.337641,-2.58794 5.160944,-4.556526 8.010975,-6.584448 -2.518444,-2.343656 -5.227084,-4.783949 -7.354608,-7.695642 -1.823503,-2.667219 -3.108272,-6.012682 -2.599207,-9.466826 0.628179,-3.829027 3.34322,-7.21765 7.033567,-8.62364 0,0 10e-6,-4e-6 10e-6,-4e-6 2.451437,-0.907046 5.099758,-0.978863 7.582235,-0.539244 3.654103,0.639642 7.034058,2.189775 10.108628,4.026083 4.502139,2.676172 8.573401,5.948422 12.426128,9.189092 1.913432,1.607463 3.787237,3.236167 5.620307,4.861557 2.700871,2.402536 5.366103,4.844556 8.002853,7.2636 4.52713,4.152736 8.88815,8.193755 13.41986,12.114008 3.85086,3.327365 7.62673,6.48851 11.75091,9.09255 2.82692,1.774333 5.74447,3.263442 8.82818,3.873169 2.02703,0.392684 4.10558,0.40862 5.88136,-0.308426 1.41258,-0.548687 2.64654,-1.564597 3.5036,-2.812597 0.81642,-1.185498 1.3276,-2.58367 1.52744,-4.009926 0.40734,-2.691022 -0.60378,-5.501739 -2.0294,-7.898819 -1.68222,-2.987584 -3.98717,-5.671571 -6.13783,-8.232495 2.32787,-2.757073 4.50455,-5.238258 6.16866,-8.100854 1.46687,-2.423987 2.37778,-5.117093 1.85543,-7.623815 -0.58997,-3.080226 -2.74148,-5.684654 -5.11211,-7.466873 -2.94851,-2.19209 -6.52186,-3.112738 -9.6943,-2.549478 -4.55947,0.780204 -8.51021,4.104774 -11.24091,6.505359 -4.96841,4.380483 -12.30964,12.690986 -11.78907,12.118302 z"
         id="path7187"
         inkscape:connector-curvature="0"
         sodipodi:nodetypes="cccccccccccc"
         inkscape:original-d="m 110.55805,56.739434 c 0,0 15.57306,-17.626768 23.35891,-26.439435 6.92966,6.047207 13.85942,12.094994 20.78869,18.142857 -4.59843,5.127595 -13.79613,15.383631 -13.79613,15.383631 0,0 9.29848,10.230292 13.94732,15.345833 -6.22374,6.929298 -12.44751,13.858597 -18.67202,20.788691 C 113.97183,75.240156 91.760284,50.52146 69.547619,25.802083 62.177348,32.794377 54.807084,39.786679 47.436012,46.779761 c 5.292126,5.417594 15.874998,16.252976 15.874998,16.252976 0,0 -11.842761,9.19698 -17.76488,13.796132 8.127065,6.488575 16.253241,12.976916 24.379465,19.465771 8.630719,-8.889003 17.261176,-17.777744 25.891367,-26.666219"
         inkscape:path-effect="#path-effect7189;#path-effect7191" />
      <path
         inkscape:path-effect="#path-effect832;#path-effect6647"
         inkscape:original-d="m 113.20388,53.035268 c 0,0 13.80915,-15.157294 20.71308,-22.735269 6.92966,6.047207 13.85942,12.094994 20.78869,18.142857 -6.00954,5.127595 -18.02946,15.383631 -18.02946,15.383631 0,0 12.1207,10.230292 18.18065,15.345833 -6.22374,6.929298 -12.44751,13.858597 -18.67202,20.788691 C 113.97183,75.240156 91.760284,50.52146 69.547619,25.802083 62.177348,32.794377 54.807084,39.786679 47.436012,46.779761 c 6.526894,5.417594 19.579165,16.252976 19.579165,16.252976 0,0 -14.312158,9.19698 -21.469047,13.796132 8.127065,6.488575 16.253241,12.976916 24.379465,19.465771 7.572386,-7.83067 15.144509,-15.661077 22.716367,-23.491219"
         sodipodi:nodetypes="cccccccccccc"
         inkscape:connector-curvature="0"
         id="path830"
         d="m 113.40266,53.216365 c 0.61903,-0.706445 5.89822,-6.991806 10.12551,-10.73728 2.31204,-2.050361 5.97028,-5.061549 10.37164,-5.636497 3.17991,-0.398806 6.7943,0.590827 9.8742,2.984186 2.33589,1.788965 4.66155,4.59688 5.0204,8.110144 0.25109,3.093326 -1.28592,6.045938 -3.40089,8.568413 -2.37902,2.730849 -5.13197,4.892713 -8.21086,7.319806 2.70243,2.075473 5.88823,4.431398 8.48898,7.217738 2.0506,2.333049 3.96738,5.448091 3.99487,9.049383 -0.011,1.685484 -0.45409,3.403051 -1.35183,4.919092 -0.94499,1.586345 -2.40571,2.886279 -4.1758,3.627187 -2.21037,0.896988 -4.65017,0.951934 -6.95638,0.491967 -3.40522,-0.663288 -6.5656,-2.187169 -9.57364,-4.065222 -4.23839,-2.63079 -8.07078,-5.761251 -12.09108,-9.199501 -4.53486,-3.873841 -8.7822,-7.769237 -13.53031,-12.099145 C 99.403986,61.411039 96.670967,58.916292 93.945253,56.496959 92.090818,54.848146 90.2637,53.254806 88.432845,51.706996 84.35868,48.267144 80.531503,45.185431 76.358483,42.676317 73.314914,40.855898 70.24223,39.428898 67.056731,38.862004 c -2.226492,-0.388942 -4.45164,-0.366006 -6.369272,0.367632 -2.921368,1.075111 -5.04288,3.966373 -5.230091,6.835496 -0.291942,2.884616 1.511663,5.761239 3.405391,8.087267 2.550837,3.344559 5.830155,6.281895 8.688145,8.912971 -3.726222,2.638353 -6.91725,4.775808 -9.784683,7.558568 -1.206348,1.093724 -2.264145,2.219377 -2.996869,3.506316 -0.645198,1.137124 -1.011733,2.389598 -0.915089,3.585226 0.08875,1.394983 0.727214,2.746951 1.503822,3.922721 0.984143,1.474169 2.26094,2.711342 3.605831,3.72353 3.366672,2.517891 7.188392,3.688416 10.657253,3.452918 4.637555,-0.292811 8.833788,-3.123606 11.591947,-5.206602 4.783086,-3.615101 10.12219,-9.109719 11.6199,-10.619886 -1.310933,1.3825 -6.671878,7.257418 -11.311357,11.010201 -2.808773,2.285165 -6.943955,5.219954 -11.824073,5.710148 -3.766312,0.348116 -7.875516,-0.810391 -11.444516,-3.367632 -1.472505,-1.046769 -2.874242,-2.351261 -3.996234,-3.94101 -0.912047,-1.277606 -1.660262,-2.827106 -1.838465,-4.558786 -0.134512,-1.548609 0.26301,-3.099702 1.01508,-4.455011 0.834247,-1.508922 1.978397,-2.794738 3.231189,-3.957326 2.948137,-2.539174 6.246687,-4.392451 9.803745,-6.429315 -2.963884,-2.197103 -6.349388,-4.613896 -9.135446,-7.542112 -2.177541,-2.454838 -4.164047,-5.764045 -3.997596,-9.536571 0.268678,-3.787878 2.831151,-7.334693 6.56453,-8.773974 2.41861,-0.905648 5.051059,-0.983779 7.556475,-0.531846 3.592034,0.637835 6.951602,2.155876 10.108544,4.048187 4.393184,2.620406 8.369748,5.794769 12.419397,9.206808 2.343734,1.972222 4.661676,4.003477 7.004471,6.101086 2.24384,2.013777 4.48173,4.062768 6.62129,6.022444 4.7423,4.342924 8.94667,8.226486 13.43514,12.095122 3.98286,3.4287 7.69852,6.509793 11.76188,9.061397 2.88174,1.797978 5.77038,3.247059 8.79596,3.837767 2.01828,0.382418 4.03991,0.395816 5.7281,-0.315961 1.33576,-0.538496 2.47804,-1.533594 3.2042,-2.731502 0.71168,-1.164344 1.0781,-2.533267 1.10459,-3.875538 0.11329,-2.815015 -1.60127,-5.546761 -3.42722,-7.786137 -2.40365,-3.145212 -5.47239,-5.936566 -8.16106,-8.450446 3.12891,-2.928518 5.83128,-5.365726 8.14998,-8.321391 1.96886,-2.389404 3.46444,-4.911258 3.22089,-7.456903 -0.1754,-2.961685 -2.26052,-5.561809 -4.37359,-7.312922 -2.80805,-2.267578 -6.11321,-3.309229 -9.05084,-3.006152 -4.07339,0.368524 -7.7496,3.199433 -10.1282,5.150052 -4.37583,3.618215 -9.98206,9.814247 -10.46722,10.335527 z"
         style="fill:#cfb53b;fill-opacity:1;stroke:#cfb53b;stroke-width:11.80000019;stroke-linecap:butt;stroke-linejoin:miter;stroke-miterlimit:4;stroke-dasharray:none;stroke-opacity:1" />
    </g>
  </g>
</svg>
