<?xml version="1.0" encoding="UTF-8" standalone="no"?>
<svg
   xmlns:dc="http://purl.org/dc/elements/1.1/"
   xmlns:cc="http://creativecommons.org/ns#"
   xmlns:rdf="http://www.w3.org/1999/02/22-rdf-syntax-ns#"
   xmlns:svg="http://www.w3.org/2000/svg"
   xmlns="http://www.w3.org/2000/svg"
   xmlns:sodipodi="http://sodipodi.sourceforge.net/DTD/sodipodi-0.dtd"
   xmlns:inkscape="http://www.inkscape.org/namespaces/inkscape"
   version="1.1"
   id="svg8"
   inkscape:export-filename="/home/leonixyz/Sources/sites/wedding.bz.it/dist/img/favicon-full.png"
   inkscape:export-xdpi="102.4"
   inkscape:export-ydpi="102.4"
   inkscape:version="1.0.1 (3bc2e813f5, 2020-09-07)"
   x="0px"
   y="0px"
   viewBox="0 0 175.92088 175.9209"
   xml:space="preserve"
   sodipodi:docname="favicon.svg"
   width="175.92088"
   height="175.92088"><metadata
   id="metadata31"><rdf:RDF><cc:Work
       rdf:about=""><dc:format>image/svg+xml</dc:format><dc:type
         rdf:resource="http://purl.org/dc/dcmitype/StillImage" /><dc:title></dc:title></cc:Work></rdf:RDF></metadata>
<style
   type="text/css"
   id="style2">
	.st0{fill:#CFB53B;}
	.st1{font-family:'Oxygen-Regular';}
	.st2{font-size:24.6035px;}
	.st3{letter-spacing:9;}
</style>
<defs
   id="defs17"><inkscape:path-effect
   effect="bspline"
   id="path-effect889"
   is_visible="true"
   lpeversion="1"
   weight="33.333333"
   steps="2"
   helper_size="0"
   apply_no_weight="true"
   apply_with_weight="true"
   only_selected="false" /><inkscape:path-effect
   effect="bspline"
   id="path-effect885"
   is_visible="true"
   lpeversion="1"
   weight="33.333333"
   steps="2"
   helper_size="0"
   apply_no_weight="true"
   apply_with_weight="true"
   only_selected="false" /><inkscape:path-effect
   effect="bspline"
   id="path-effect881"
   is_visible="true"
   lpeversion="1"
   weight="33.333333"
   steps="2"
   helper_size="0"
   apply_no_weight="true"
   apply_with_weight="true"
   only_selected="false" /><inkscape:path-effect
   effect="bspline"
   id="path-effect877"
   is_visible="true"
   lpeversion="1"
   weight="33.333333"
   steps="2"
   helper_size="0"
   apply_no_weight="true"
   apply_with_weight="true"
   only_selected="false" /><inkscape:path-effect
   effect="bspline"
   id="path-effect873"
   is_visible="true"
   lpeversion="1"
   weight="33.333333"
   steps="2"
   helper_size="0"
   apply_no_weight="true"
   apply_with_weight="true"
   only_selected="false" />
	
		<inkscape:path-effect
   copytype="single_stretched"
   effect="skeletal"
   fuse_tolerance="0"
   id="path-effect7241"
   is_visible="true"
   normal_offset="0"
   pattern="m 93.449791,43.685968 c 0.458362,-0.200011 2.197599,-1.367771 7.041489,-1.478923 4.20607,-0.01667 5.85195,1.309107 6.43531,1.475784 -0.6167,0.133342 -2.90543,0.845035 -6.52102,0.944391 -4.690467,0.0049 -6.530752,-0.841249 -6.955779,-0.941252 z"
   pattern-nodetypes="ccccc"
   prop_scale="1"
   prop_units="false"
   scale_y_rel="false"
   spacing="0"
   tang_offset="0"
   vertical_pattern="false"
   lpeversion="0"
   hide_knot="false">
		</inkscape:path-effect>
	
		<inkscape:path-effect
   apply_no_weight="true"
   apply_with_weight="true"
   effect="bspline"
   helper_size="0"
   id="path-effect7239"
   is_visible="true"
   only_selected="false"
   steps="2"
   weight="33.333333"
   lpeversion="0">
		</inkscape:path-effect>
	
		<inkscape:path-effect
   copytype="single_stretched"
   effect="skeletal"
   fuse_tolerance="0"
   id="path-effect7191"
   is_visible="true"
   normal_offset="0"
   pattern="m 94.668764,40.274733 c 0.458362,-0.200011 4.493805,-1.037042 9.337696,-1.148194 4.20607,-0.01667 8.35604,1.072872 8.9394,1.239549 -0.6167,0.133342 -5.12604,1.043472 -8.74163,1.142828 -4.690466,0.0049 -9.110439,-1.13418 -9.535466,-1.234183 z"
   pattern-nodetypes="ccccc"
   prop_scale="1"
   prop_units="false"
   scale_y_rel="false"
   spacing="0"
   tang_offset="0"
   vertical_pattern="false"
   lpeversion="0"
   hide_knot="false">
		</inkscape:path-effect>
	
		<inkscape:path-effect
   apply_no_weight="true"
   apply_with_weight="true"
   effect="bspline"
   helper_size="0"
   id="path-effect7189"
   is_visible="true"
   only_selected="false"
   steps="2"
   weight="33.333333"
   lpeversion="0">
		</inkscape:path-effect>
	
		<inkscape:path-effect
   copytype="single_stretched"
   effect="skeletal"
   fuse_tolerance="0"
   id="path-effect7185"
   is_visible="true"
   normal_offset="0"
   pattern="m 93.449791,43.685968 c 0.458362,-0.200011 2.008611,-3.91911 6.852499,-4.030262 4.20607,-0.01667 6.04094,3.860446 6.6243,4.027123 -0.6167,0.133342 -2.81094,3.018398 -6.42653,3.117754 -4.690463,0.0049 -6.625242,-3.014612 -7.050269,-3.114615 z"
   pattern-nodetypes="ccccc"
   prop_scale="1"
   prop_units="false"
   scale_y_rel="false"
   spacing="0"
   tang_offset="0"
   vertical_pattern="false"
   lpeversion="0"
   hide_knot="false">
		</inkscape:path-effect>
	
		<inkscape:path-effect
   apply_no_weight="true"
   apply_with_weight="true"
   effect="bspline"
   helper_size="0"
   id="path-effect7183"
   is_visible="true"
   only_selected="false"
   steps="2"
   weight="33.333333"
   lpeversion="0">
		</inkscape:path-effect>
	
		<inkscape:path-effect
   copytype="single_stretched"
   effect="skeletal"
   fuse_tolerance="0"
   id="path-effect6669"
   is_visible="true"
   normal_offset="0"
   pattern="m 93.449791,43.685968 c 0.458362,-0.200011 2.008611,-3.91911 6.852499,-4.030262 4.20607,-0.01667 6.04094,3.860446 6.6243,4.027123 -0.6167,0.133342 -2.81094,3.018398 -6.42653,3.117754 -4.690463,0.0049 -6.625242,-3.014612 -7.050269,-3.114615 z"
   pattern-nodetypes="ccccc"
   prop_scale="1"
   prop_units="false"
   scale_y_rel="false"
   spacing="0"
   tang_offset="0"
   vertical_pattern="false"
   lpeversion="0"
   hide_knot="false">
		</inkscape:path-effect>
	
		<inkscape:path-effect
   apply_no_weight="true"
   apply_with_weight="true"
   effect="bspline"
   helper_size="0"
   id="path-effect6667"
   is_visible="true"
   only_selected="false"
   steps="2"
   weight="33.333333"
   lpeversion="0">
		</inkscape:path-effect>
	
		<inkscape:path-effect
   copytype="single_stretched"
   effect="skeletal"
   fuse_tolerance="0"
   id="path-effect6647"
   is_visible="true"
   normal_offset="0"
   pattern="m 93.449791,43.685968 c 0.458362,-0.200011 2.197599,-1.367771 7.041489,-1.478923 4.20607,-0.01667 5.85195,1.309107 6.43531,1.475784 -0.6167,0.133342 -2.90543,0.845035 -6.52102,0.944391 -4.690467,0.0049 -6.530752,-0.841249 -6.955779,-0.941252 z"
   pattern-nodetypes="ccccc"
   prop_scale="1"
   prop_units="false"
   scale_y_rel="false"
   spacing="0"
   tang_offset="0"
   vertical_pattern="false"
   lpeversion="0"
   hide_knot="false">
		</inkscape:path-effect>
	
		<inkscape:path-effect
   apply_no_weight="true"
   apply_with_weight="true"
   effect="bspline"
   helper_size="0"
   id="path-effect6629"
   is_visible="true"
   only_selected="false"
   steps="2"
   weight="33.333333"
   lpeversion="0">
		</inkscape:path-effect>
	
		<inkscape:path-effect
   copytype="single_stretched"
   effect="skeletal"
   fuse_tolerance="0"
   id="path-effect2904"
   is_visible="true"
   normal_offset="0"
   pattern="M 0,0 H 1"
   prop_scale="1"
   prop_units="false"
   scale_y_rel="false"
   spacing="0"
   tang_offset="0"
   vertical_pattern="false"
   lpeversion="0"
   hide_knot="false">
		</inkscape:path-effect>
	
		<inkscape:path-effect
   apply_no_weight="true"
   apply_with_weight="true"
   effect="bspline"
   helper_size="0"
   id="path-effect832"
   is_visible="true"
   only_selected="false"
   steps="2"
   weight="33.333333"
   lpeversion="0">
		</inkscape:path-effect>
	
		<inkscape:path-effect
   apply_no_weight="true"
   apply_with_weight="true"
   effect="bspline"
   helper_size="0"
   id="path-effect828"
   is_visible="true"
   only_selected="false"
   steps="2"
   weight="33.333333"
   lpeversion="0">
		</inkscape:path-effect>
</defs>
<sodipodi:namedview
   bordercolor="#666666"
   borderopacity="1.0"
   id="base"
   inkscape:bbox-nodes="true"
   inkscape:bbox-paths="true"
   inkscape:current-layer="g28"
   inkscape:cx="89.162442"
   inkscape:cy="273.0446"
   inkscape:document-units="mm"
   inkscape:pageopacity="0.0"
   inkscape:pageshadow="2"
   inkscape:snap-bbox="true"
   inkscape:snap-bbox-edge-midpoints="true"
   inkscape:snap-bbox-midpoints="true"
   inkscape:window-height="1414"
   inkscape:window-maximized="1"
   inkscape:window-width="2558"
   inkscape:window-x="0"
   inkscape:window-y="24"
   inkscape:zoom="0.66790274"
   pagecolor="#ffffff"
   showgrid="false"
   inkscape:document-rotation="0"
   lock-margins="true"
   fit-margin-top="0"
   fit-margin-left="0"
   fit-margin-right="0"
   fit-margin-bottom="0"
   inkscape:object-paths="true"
   inkscape:snap-intersection-paths="true"
   inkscape:snap-smooth-nodes="true"
   inkscape:snap-midpoints="true"
   inkscape:snap-object-midpoints="true"
   inkscape:snap-center="true"
   inkscape:snap-page="true">
	</sodipodi:namedview>
<g
   id="flowRoot4612"
   transform="matrix(0.47341794,0,0,0.47341794,-85.335602,-122.52216)"
   inkscape:export-filename="/home/leonixyz/bitmap.png"
   inkscape:export-xdpi="102.4"
   inkscape:export-ydpi="102.4">
</g>
<g
   id="flowRoot4620"
   transform="matrix(0.26458333,0,0,0.26458333,-8.6251338,-11.349898)"
   inkscape:export-filename="/home/leonixyz/bitmap.png"
   inkscape:export-xdpi="102.4"
   inkscape:export-ydpi="102.4">
</g>
<g
   id="flowRoot4628"
   transform="matrix(0.26458333,0,0,0.26458333,-8.6251338,-11.349898)"
   inkscape:export-filename="/home/leonixyz/bitmap.png"
   inkscape:export-xdpi="102.4"
   inkscape:export-ydpi="102.4">
</g>
<g
   id="flowRoot4636"
   transform="matrix(0.26458333,0,0,0.26458333,-8.6251338,-11.349898)"
   inkscape:export-filename="/home/leonixyz/bitmap.png"
   inkscape:export-xdpi="102.4"
   inkscape:export-ydpi="102.4">
</g>

<g
   id="g28"
   transform="matrix(0.67469272,0,0,0.67469272,-39.770068,5.377477)"
   style="stroke-width:168.49807385;stroke-miterlimit:4;stroke-dasharray:none">
	<rect
   style="opacity:1;fill:#cfb53b;fill-opacity:1;fill-rule:evenodd;stroke:none;stroke-width:0;stroke-linecap:round;stroke-linejoin:round;stroke-miterlimit:4;stroke-dasharray:none;stroke-dashoffset:0;stroke-opacity:1"
   id="rect865"
   width="260.74225"
   height="260.74225"
   x="58.945454"
   y="-7.9702611" />
<path
   class="st0"
   d="m 179.39203,136.81862 c -8.76731,10.32412 -17.86237,20.40243 -27.7768,29.82523 -2.45813,2.3762 -4.99819,4.67045 -7.62019,6.88275 -1.311,1.06519 -2.622,2.21231 -4.01493,3.27751 -0.6555,0.57355 -1.311,1.06518 -2.04844,1.5568 l -1.14712,0.81938 -1.14713,0.73744 c -6.39112,3.93299 -14.0113,5.57175 -21.38567,4.99818 -7.37438,-0.49162 -14.748753,-3.35943 -20.484375,-8.35762 -2.867811,-2.45812 -5.325936,-5.48981 -7.12856,-8.93118 -1.802624,-3.44138 -2.867811,-7.2105 -3.113623,-11.06156 -0.245812,-3.85106 0.163875,-7.62018 1.229062,-11.22543 0.491625,-1.80263 1.229062,-3.52332 1.966499,-5.244 0.819374,-1.72069 1.720686,-3.2775 2.785873,-4.83431 2.212312,-3.03168 4.506561,-5.57174 6.882747,-8.02987 2.376186,-2.45812 9.808077,-9.03172 7.374377,-7.2105 v 0 l 0.0819,4.58851 c 2.08746,2.118 -5.653691,-5.08013 -8.275689,-7.78406 -1.310999,-1.39294 -2.621999,-2.78588 -3.932998,-4.26075 -0.6555,-0.73745 -1.311,-1.55682 -1.884562,-2.37619 -0.32775,-0.40969 -0.6555,-0.90132 -0.901312,-1.311 -0.245813,-0.40969 -0.573563,-0.90132 -0.819375,-1.311 -2.048436,-3.52331 -3.523311,-7.45631 -4.178811,-11.553178 -0.737436,-4.096873 -0.573561,-8.439559 0.409688,-12.536432 1.065187,-4.096872 3.031686,-8.029871 5.735622,-11.307369 2.703937,-3.277499 5.981434,-5.899498 9.66862,-7.947934 7.374377,-4.014935 15.895877,-5.325935 24.089617,-3.932998 4.09687,0.737437 8.11181,2.048436 11.79899,4.17881 0.90132,0.573563 1.80263,1.065188 2.70394,1.720687 0.81938,0.573562 1.55681,1.229062 2.37619,1.802624 1.47487,1.229063 3.03168,2.458124 4.42462,3.769123 5.65369,5.080123 10.97962,10.32412 16.22362,15.650055 10.488,10.651871 20.64824,21.549552 30.80848,32.365292 10.16024,10.89768 20.23856,21.79537 30.56268,32.3653 5.16206,5.244 10.40606,10.56993 15.73199,15.40424 1.311,1.22907 2.70394,2.37619 4.09687,3.52331 0.6555,0.49163 1.39293,1.06519 2.04844,1.55682 l 0.98324,0.65549 1.06519,0.6555 c 2.78588,1.63876 5.8995,2.86782 9.177,3.44137 6.47305,1.22907 13.51968,0.32776 19.41917,-2.70393 2.94975,-1.55682 5.57175,-3.52331 7.70213,-6.06337 2.13037,-2.45812 3.68719,-5.32594 4.5885,-8.43956 1.80262,-6.22725 0.73743,-13.3558 -2.45813,-19.2553 -0.40969,-0.73744 -0.81937,-1.47488 -1.311,-2.13038 -0.49162,-0.73744 -0.98324,-1.39293 -1.55681,-2.13038 -1.06518,-1.39293 -2.21231,-2.78586 -3.44137,-4.1788 -2.37618,-2.78587 -4.91625,-5.48981 -7.45631,-8.11181 l -1.80262,-1.88456 1.80262,-1.72068 v 0 c 2.21231,-2.45814 4.42462,-4.9982 6.55499,-7.53826 1.0652,-1.22906 2.13038,-2.54006 3.11363,-3.85106 0.98325,-1.311 1.9665,-2.622 2.70394,-3.85106 1.55681,-2.622 2.70393,-5.48981 3.35943,-8.357613 0.6555,-2.949749 0.90132,-5.899498 0.49163,-8.767309 -0.32776,-2.867811 -1.311,-5.653685 -2.70394,-8.111808 -1.39294,-2.458124 -3.35943,-4.752374 -5.65369,-6.554998 -4.50655,-3.769123 -10.48799,-5.899497 -16.46942,-6.227246 -3.03169,-0.163875 -6.06337,0.08194 -8.93119,0.737437 -2.94975,0.737437 -5.73562,1.884562 -8.19375,3.441373 -1.22906,0.737437 -2.54006,1.802624 -3.85106,2.785873 -1.31099,0.98325 -2.62199,2.048437 -3.93299,3.031687 -2.54006,2.130374 -5.08012,4.260748 -7.62019,6.47306 -9.99636,8.849245 -19.58305,18.435924 -28.92392,28.186484 l -1.63875,1.72069 -3.35943,-3.03169 1.47487,-1.80262 c 4.34269,-5.244 8.84924,-10.324122 13.51968,-15.322307 4.5885,-4.998185 9.42281,-9.914433 14.42099,-14.584868 2.45813,-2.376186 5.08013,-4.670436 7.70213,-6.882747 1.311,-1.147124 2.622,-2.212312 4.01493,-3.359436 1.39293,-1.065187 2.70393,-2.130374 4.34268,-3.277498 3.19557,-2.130374 6.71888,-3.605248 10.32412,-4.588498 3.68719,-0.901312 7.45632,-1.311 11.22544,-1.147125 3.76912,0.163876 7.45631,0.901312 11.06155,2.212312 3.52331,1.310999 6.96469,3.195561 9.91444,5.571748 1.47487,1.229061 2.86781,2.540061 4.09687,4.014935 1.22906,1.474874 2.37619,3.113624 3.35944,4.752372 0.98325,1.720687 1.72069,3.523311 2.29425,5.407873 0.57356,1.884562 0.98324,3.769123 1.14712,5.735622 0.40969,3.851061 0,7.702122 -0.98325,11.389308 -1.06518,3.687179 -2.622,7.128559 -4.75237,10.160239 -1.06519,1.63875 -2.21232,2.94975 -3.44138,4.26075 -1.14712,1.311 -2.37618,2.622 -3.60524,3.85106 -2.45813,2.45812 -9.11801,9.15366 -7.53825,7.12856 v 0 -3.60524 c -1.93281,-1.78149 5.40788,5.24399 7.94794,8.02986 1.311,1.39294 2.54006,2.78587 3.76912,4.34269 0.65549,0.73744 1.22906,1.55681 1.80262,2.37618 0.57356,0.81938 1.14713,1.72069 1.63875,2.54006 2.04844,3.52332 3.44138,7.37438 4.09687,11.38932 0.65551,4.01493 0.57357,8.27567 -0.49163,12.37255 -1.06518,4.09687 -3.03167,7.86599 -5.73561,11.06156 -2.622,3.19555 -5.98144,5.81755 -9.58669,7.78406 -7.29243,3.933 -15.81393,5.244 -23.92574,3.85106 -4.09686,-0.73744 -8.02986,-2.04844 -11.63512,-4.17881 l -1.311,-0.81938 -1.311,-0.90131 c -0.81937,-0.57356 -1.5568,-1.22907 -2.37618,-1.80262 -1.47488,-1.22906 -2.94975,-2.45813 -4.42462,-3.6872 -5.65369,-5.08012 -10.97962,-10.32412 -16.30556,-15.65005 -10.48799,-10.65186 -20.73017,-21.46761 -30.97236,-32.28336 -9.99637,-10.73381 -20.15662,-21.54955 -30.48073,-32.119477 -5.16206,-5.243997 -10.40606,-10.487995 -15.81394,-15.322305 -2.70393,-2.376186 -5.4898,-4.83431 -8.1118,-6.391122 -2.78587,-1.638749 -5.8995,-2.785873 -9.09506,-3.359436 -6.47306,-1.147124 -13.3558,-0.245812 -19.17336,2.867811 -2.86781,1.556812 -5.489818,3.523311 -7.538255,5.981435 -2.048436,2.458123 -3.605248,5.325935 -4.424623,8.357621 -1.720686,6.145309 -0.573561,13.109994 2.621999,18.927543 0.163875,0.40969 0.409688,0.73745 0.6555,1.06519 0.245812,0.32775 0.409687,0.6555 0.6555,0.98326 0.491624,0.65549 0.98325,1.31099 1.556811,2.04843 1.065187,1.311 2.29425,2.70393 3.523318,4.01493 2.45812,2.622 5.08012,5.244 7.70212,7.70212 l 2.54006,2.37619 -2.45813,2.21232 v 0 c -2.29424,2.29424 -4.67043,4.75237 -6.88274,7.21049 -2.212316,2.45812 -4.424628,4.99818 -6.063376,7.45631 -3.277499,4.99819 -5.080123,11.1435 -4.588498,16.96105 0.245812,2.94975 1.065187,5.73563 2.376186,8.27569 1.311,2.54006 3.195561,4.91624 5.407872,6.80081 2.212316,1.96649 4.834316,3.52331 7.620186,4.67043 2.78588,1.14712 5.73563,1.80263 8.76731,2.13038 6.06337,0.57356 12.29062,-0.65551 17.45268,-3.68719 l 0.98325,-0.57356 0.90131,-0.65551 c 0.6555,-0.40968 1.311,-0.98324 1.9665,-1.47486 1.311,-0.98326 2.622,-2.04844 3.933,-3.03169 2.54006,-2.13037 5.08012,-4.26075 7.62018,-6.47306 4.99818,-4.42463 9.8325,-9.09506 14.50293,-13.84743 4.75237,-4.75238 9.42281,-9.58668 14.0113,-14.50293 l 1.55682,-1.63875 3.2775,2.86781 z"
   id="path26"
   style="fill:#fffffd;fill-opacity:1;stroke:#ffffff;stroke-width:14.95694065;stroke-linecap:round;stroke-linejoin:miter;stroke-miterlimit:4;stroke-dasharray:none;stroke-opacity:1"
   sodipodi:nodetypes="cccccccccsscccsccccscscccsccccccsccccccccccscccccccscscccsccccsccccccccccccsccscsccccscccccscsscccccccccccccccsccsscscccssccscsccccsccccccc" /></g>
</svg>
