<?xml version="1.0" encoding="UTF-8" standalone="no"?>
<svg
   xmlns:dc="http://purl.org/dc/elements/1.1/"
   xmlns:cc="http://creativecommons.org/ns#"
   xmlns:rdf="http://www.w3.org/1999/02/22-rdf-syntax-ns#"
   xmlns:svg="http://www.w3.org/2000/svg"
   xmlns="http://www.w3.org/2000/svg"
   xmlns:sodipodi="http://sodipodi.sourceforge.net/DTD/sodipodi-0.dtd"
   xmlns:inkscape="http://www.inkscape.org/namespaces/inkscape"
   version="1.1"
   id="svg8"
   inkscape:export-filename="/home/leonixyz/logo.png"
   inkscape:export-xdpi="102.4"
   inkscape:export-ydpi="102.4"
   inkscape:version="1.0.1 (3bc2e813f5, 2020-09-07)"
   x="0px"
   y="0px"
   viewBox="0 0 378.55179 272.91536"
   xml:space="preserve"
   sodipodi:docname="logo-notext.svg"
   width="378.55179"
   height="272.91534"><metadata
   id="metadata31"><rdf:RDF><cc:Work
       rdf:about=""><dc:format>image/svg+xml</dc:format><dc:type
         rdf:resource="http://purl.org/dc/dcmitype/StillImage" /><dc:title></dc:title></cc:Work></rdf:RDF></metadata>
<style
   type="text/css"
   id="style2">
	.st0{fill:#CFB53B;}
	.st1{font-family:'Oxygen-Regular';}
	.st2{font-size:24.6035px;}
	.st3{letter-spacing:9;}
</style>
<defs
   id="defs17">
	
		<inkscape:path-effect
   copytype="single_stretched"
   effect="skeletal"
   fuse_tolerance="0"
   id="path-effect7241"
   is_visible="true"
   normal_offset="0"
   pattern="m 93.449791,43.685968 c 0.458362,-0.200011 2.197599,-1.367771 7.041489,-1.478923 4.20607,-0.01667 5.85195,1.309107 6.43531,1.475784 -0.6167,0.133342 -2.90543,0.845035 -6.52102,0.944391 -4.690467,0.0049 -6.530752,-0.841249 -6.955779,-0.941252 z"
   pattern-nodetypes="ccccc"
   prop_scale="1"
   prop_units="false"
   scale_y_rel="false"
   spacing="0"
   tang_offset="0"
   vertical_pattern="false"
   lpeversion="0"
   hide_knot="false">
		</inkscape:path-effect>
	
		<inkscape:path-effect
   apply_no_weight="true"
   apply_with_weight="true"
   effect="bspline"
   helper_size="0"
   id="path-effect7239"
   is_visible="true"
   only_selected="false"
   steps="2"
   weight="33.333333"
   lpeversion="0">
		</inkscape:path-effect>
	
		<inkscape:path-effect
   copytype="single_stretched"
   effect="skeletal"
   fuse_tolerance="0"
   id="path-effect7191"
   is_visible="true"
   normal_offset="0"
   pattern="m 94.668764,40.274733 c 0.458362,-0.200011 4.493805,-1.037042 9.337696,-1.148194 4.20607,-0.01667 8.35604,1.072872 8.9394,1.239549 -0.6167,0.133342 -5.12604,1.043472 -8.74163,1.142828 -4.690466,0.0049 -9.110439,-1.13418 -9.535466,-1.234183 z"
   pattern-nodetypes="ccccc"
   prop_scale="1"
   prop_units="false"
   scale_y_rel="false"
   spacing="0"
   tang_offset="0"
   vertical_pattern="false"
   lpeversion="0"
   hide_knot="false">
		</inkscape:path-effect>
	
		<inkscape:path-effect
   apply_no_weight="true"
   apply_with_weight="true"
   effect="bspline"
   helper_size="0"
   id="path-effect7189"
   is_visible="true"
   only_selected="false"
   steps="2"
   weight="33.333333"
   lpeversion="0">
		</inkscape:path-effect>
	
		<inkscape:path-effect
   copytype="single_stretched"
   effect="skeletal"
   fuse_tolerance="0"
   id="path-effect7185"
   is_visible="true"
   normal_offset="0"
   pattern="m 93.449791,43.685968 c 0.458362,-0.200011 2.008611,-3.91911 6.852499,-4.030262 4.20607,-0.01667 6.04094,3.860446 6.6243,4.027123 -0.6167,0.133342 -2.81094,3.018398 -6.42653,3.117754 -4.690463,0.0049 -6.625242,-3.014612 -7.050269,-3.114615 z"
   pattern-nodetypes="ccccc"
   prop_scale="1"
   prop_units="false"
   scale_y_rel="false"
   spacing="0"
   tang_offset="0"
   vertical_pattern="false"
   lpeversion="0"
   hide_knot="false">
		</inkscape:path-effect>
	
		<inkscape:path-effect
   apply_no_weight="true"
   apply_with_weight="true"
   effect="bspline"
   helper_size="0"
   id="path-effect7183"
   is_visible="true"
   only_selected="false"
   steps="2"
   weight="33.333333"
   lpeversion="0">
		</inkscape:path-effect>
	
		<inkscape:path-effect
   copytype="single_stretched"
   effect="skeletal"
   fuse_tolerance="0"
   id="path-effect6669"
   is_visible="true"
   normal_offset="0"
   pattern="m 93.449791,43.685968 c 0.458362,-0.200011 2.008611,-3.91911 6.852499,-4.030262 4.20607,-0.01667 6.04094,3.860446 6.6243,4.027123 -0.6167,0.133342 -2.81094,3.018398 -6.42653,3.117754 -4.690463,0.0049 -6.625242,-3.014612 -7.050269,-3.114615 z"
   pattern-nodetypes="ccccc"
   prop_scale="1"
   prop_units="false"
   scale_y_rel="false"
   spacing="0"
   tang_offset="0"
   vertical_pattern="false"
   lpeversion="0"
   hide_knot="false">
		</inkscape:path-effect>
	
		<inkscape:path-effect
   apply_no_weight="true"
   apply_with_weight="true"
   effect="bspline"
   helper_size="0"
   id="path-effect6667"
   is_visible="true"
   only_selected="false"
   steps="2"
   weight="33.333333"
   lpeversion="0">
		</inkscape:path-effect>
	
		<inkscape:path-effect
   copytype="single_stretched"
   effect="skeletal"
   fuse_tolerance="0"
   id="path-effect6647"
   is_visible="true"
   normal_offset="0"
   pattern="m 93.449791,43.685968 c 0.458362,-0.200011 2.197599,-1.367771 7.041489,-1.478923 4.20607,-0.01667 5.85195,1.309107 6.43531,1.475784 -0.6167,0.133342 -2.90543,0.845035 -6.52102,0.944391 -4.690467,0.0049 -6.530752,-0.841249 -6.955779,-0.941252 z"
   pattern-nodetypes="ccccc"
   prop_scale="1"
   prop_units="false"
   scale_y_rel="false"
   spacing="0"
   tang_offset="0"
   vertical_pattern="false"
   lpeversion="0"
   hide_knot="false">
		</inkscape:path-effect>
	
		<inkscape:path-effect
   apply_no_weight="true"
   apply_with_weight="true"
   effect="bspline"
   helper_size="0"
   id="path-effect6629"
   is_visible="true"
   only_selected="false"
   steps="2"
   weight="33.333333"
   lpeversion="0">
		</inkscape:path-effect>
	
		<inkscape:path-effect
   copytype="single_stretched"
   effect="skeletal"
   fuse_tolerance="0"
   id="path-effect2904"
   is_visible="true"
   normal_offset="0"
   pattern="M 0,0 H 1"
   prop_scale="1"
   prop_units="false"
   scale_y_rel="false"
   spacing="0"
   tang_offset="0"
   vertical_pattern="false"
   lpeversion="0"
   hide_knot="false">
		</inkscape:path-effect>
	
		<inkscape:path-effect
   apply_no_weight="true"
   apply_with_weight="true"
   effect="bspline"
   helper_size="0"
   id="path-effect832"
   is_visible="true"
   only_selected="false"
   steps="2"
   weight="33.333333"
   lpeversion="0">
		</inkscape:path-effect>
	
		<inkscape:path-effect
   apply_no_weight="true"
   apply_with_weight="true"
   effect="bspline"
   helper_size="0"
   id="path-effect828"
   is_visible="true"
   only_selected="false"
   steps="2"
   weight="33.333333"
   lpeversion="0">
		</inkscape:path-effect>
</defs>
<sodipodi:namedview
   bordercolor="#666666"
   borderopacity="1.0"
   id="base"
   inkscape:bbox-nodes="true"
   inkscape:bbox-paths="true"
   inkscape:current-layer="svg8"
   inkscape:cx="243.69035"
   inkscape:cy="183.43423"
   inkscape:document-units="mm"
   inkscape:pageopacity="0.0"
   inkscape:pageshadow="2"
   inkscape:snap-bbox="true"
   inkscape:snap-bbox-edge-midpoints="true"
   inkscape:snap-bbox-midpoints="true"
   inkscape:window-height="1414"
   inkscape:window-maximized="1"
   inkscape:window-width="2558"
   inkscape:window-x="0"
   inkscape:window-y="24"
   inkscape:zoom="2.1351279"
   pagecolor="#ffffff"
   showgrid="false"
   inkscape:document-rotation="0"
   lock-margins="true"
   fit-margin-top="60"
   fit-margin-left="60"
   fit-margin-right="60"
   fit-margin-bottom="60">
	</sodipodi:namedview>
<g
   id="flowRoot4612"
   transform="matrix(0.47341794,0,0,0.47341794,-42.477839,-74.024929)"
   inkscape:export-filename="/home/leonixyz/bitmap.png"
   inkscape:export-xdpi="102.4"
   inkscape:export-ydpi="102.4">
</g>
<g
   id="flowRoot4620"
   transform="matrix(0.26458333,0,0,0.26458333,34.232629,37.147332)"
   inkscape:export-filename="/home/leonixyz/bitmap.png"
   inkscape:export-xdpi="102.4"
   inkscape:export-ydpi="102.4">
</g>
<g
   id="flowRoot4628"
   transform="matrix(0.26458333,0,0,0.26458333,34.232629,37.147332)"
   inkscape:export-filename="/home/leonixyz/bitmap.png"
   inkscape:export-xdpi="102.4"
   inkscape:export-ydpi="102.4">
</g>
<g
   id="flowRoot4636"
   transform="matrix(0.26458333,0,0,0.26458333,34.232629,37.147332)"
   inkscape:export-filename="/home/leonixyz/bitmap.png"
   inkscape:export-xdpi="102.4"
   inkscape:export-ydpi="102.4">
</g>

<g
   id="g28"
   transform="translate(-0.04068052,14.05682)">
	<path
   class="st0"
   d="m 177.2,140 c -10.7,12.6 -21.8,24.9 -33.9,36.4 -3,2.9 -6.1,5.7 -9.3,8.4 -1.6,1.3 -3.2,2.7 -4.9,4 -0.8,0.7 -1.6,1.3 -2.5,1.9 l -1.4,1 -1.4,0.9 c -7.8,4.8 -17.1,6.8 -26.1,6.1 -9,-0.6 -18,-4.1 -25,-10.2 -3.5,-3 -6.5,-6.7 -8.7,-10.9 -2.2,-4.2 -3.5,-8.8 -3.8,-13.5 -0.3,-4.7 0.2,-9.3 1.5,-13.7 0.6,-2.2 1.5,-4.3 2.4,-6.4 1,-2.1 2.1,-4 3.4,-5.9 2.7,-3.7 5.5,-6.8 8.4,-9.8 2.9,-3 5.9,-5.9 9,-8.8 v 0 l 0.1,5.6 c -3.5,-3.1 -6.9,-6.2 -10.1,-9.5 -1.6,-1.7 -3.2,-3.4 -4.8,-5.2 -0.8,-0.9 -1.6,-1.9 -2.3,-2.9 -0.4,-0.5 -0.8,-1.1 -1.1,-1.6 -0.3,-0.5 -0.7,-1.1 -1,-1.6 -2.5,-4.3 -4.3,-9.1 -5.1,-14.1 -0.9,-5 -0.7,-10.3 0.5,-15.3 1.3,-5 3.7,-9.8 7,-13.8 3.3,-4 7.3,-7.2 11.8,-9.7 9,-4.9 19.4,-6.5 29.4,-4.8 5,0.9 9.9,2.5 14.4,5.1 1.1,0.7 2.2,1.3 3.3,2.1 1,0.7 1.9,1.5 2.9,2.2 1.8,1.5 3.7,3 5.4,4.6 6.9,6.2 13.4,12.6 19.8,19.1 12.8,13 25.2,26.3 37.6,39.5 12.4,13.3 24.7,26.6 37.3,39.5 6.3,6.4 12.7,12.9 19.2,18.8 1.6,1.5 3.3,2.9 5,4.3 0.8,0.6 1.7,1.3 2.5,1.9 l 1.2,0.8 1.3,0.8 c 3.4,2 7.2,3.5 11.2,4.2 7.9,1.5 16.5,0.4 23.7,-3.3 3.6,-1.9 6.8,-4.3 9.4,-7.4 2.6,-3 4.5,-6.5 5.6,-10.3 2.2,-7.6 0.9,-16.3 -3,-23.5 -0.5,-0.9 -1,-1.8 -1.6,-2.6 -0.6,-0.9 -1.2,-1.7 -1.9,-2.6 -1.3,-1.7 -2.7,-3.4 -4.2,-5.1 -2.9,-3.4 -6,-6.7 -9.1,-9.9 l -2.2,-2.3 2.2,-2.1 v 0 c 2.7,-3 5.4,-6.1 8,-9.2 1.3,-1.5 2.6,-3.1 3.8,-4.7 1.2,-1.6 2.4,-3.2 3.3,-4.7 1.9,-3.2 3.3,-6.7 4.1,-10.2 0.8,-3.6 1.1,-7.2 0.6,-10.7 -0.4,-3.5 -1.6,-6.9 -3.3,-9.9 -1.7,-3 -4.1,-5.8 -6.9,-8 -5.5,-4.6 -12.8,-7.2 -20.1,-7.6 -3.7,-0.2 -7.4,0.1 -10.9,0.9 -3.6,0.9 -7,2.3 -10,4.2 -1.5,0.9 -3.1,2.2 -4.7,3.4 -1.6,1.2 -3.2,2.5 -4.8,3.7 -3.1,2.6 -6.2,5.2 -9.3,7.9 -12.2,10.8 -23.9,22.5 -35.3,34.4 l -2,2.1 -4.1,-3.7 1.8,-2.2 c 5.3,-6.4 10.8,-12.6 16.5,-18.7 5.6,-6.1 11.5,-12.1 17.6,-17.8 3,-2.9 6.2,-5.7 9.4,-8.4 1.6,-1.4 3.2,-2.7 4.9,-4.1 1.7,-1.3 3.3,-2.6 5.3,-4 3.9,-2.6 8.2,-4.4 12.6,-5.6 4.5,-1.1 9.1,-1.6 13.7,-1.4 4.6,0.2 9.1,1.1 13.5,2.7 4.3,1.6 8.5,3.9 12.1,6.8 1.8,1.5 3.5,3.1 5,4.9 1.5,1.8 2.9,3.8 4.1,5.8 1.2,2.1 2.1,4.3 2.8,6.6 0.7,2.3 1.2,4.6 1.4,7 0.5,4.7 0,9.4 -1.2,13.9 -1.3,4.5 -3.2,8.7 -5.8,12.4 -1.3,2 -2.7,3.6 -4.2,5.2 -1.4,1.6 -2.9,3.2 -4.4,4.7 -3,3 -6,5.9 -9.2,8.7 v 0 -4.4 c 3.4,3.2 6.6,6.4 9.7,9.8 1.6,1.7 3.1,3.4 4.6,5.3 0.8,0.9 1.5,1.9 2.2,2.9 0.7,1 1.4,2.1 2,3.1 2.5,4.3 4.2,9 5,13.9 0.8,4.9 0.7,10.1 -0.6,15.1 -1.3,5 -3.7,9.6 -7,13.5 -3.2,3.9 -7.3,7.1 -11.7,9.5 -8.9,4.8 -19.3,6.4 -29.2,4.7 -5,-0.9 -9.8,-2.5 -14.2,-5.1 l -1.6,-1 -1.6,-1.1 c -1,-0.7 -1.9,-1.5 -2.9,-2.2 -1.8,-1.5 -3.6,-3 -5.4,-4.5 C 236,178.1 229.5,171.7 223,165.2 210.2,152.2 197.7,139 185.2,125.8 173,112.7 160.6,99.5 148,86.6 141.7,80.2 135.3,73.8 128.7,67.9 125.4,65 122,62 118.8,60.1 c -3.4,-2 -7.2,-3.4 -11.1,-4.1 -7.9,-1.4 -16.3,-0.3 -23.4,3.5 -3.5,1.9 -6.7,4.3 -9.2,7.3 -2.5,3 -4.4,6.5 -5.4,10.2 -2.1,7.5 -0.7,16 3.2,23.1 0.2,0.5 0.5,0.9 0.8,1.3 0.3,0.4 0.5,0.8 0.8,1.2 0.6,0.8 1.2,1.6 1.9,2.5 1.3,1.6 2.8,3.3 4.3,4.9 3,3.2 6.2,6.4 9.4,9.4 l 3.1,2.9 -3,2.7 v 0 c -2.8,2.8 -5.7,5.8 -8.4,8.8 -2.7,3 -5.4,6.1 -7.4,9.1 -4,6.1 -6.2,13.6 -5.6,20.7 0.3,3.6 1.3,7 2.9,10.1 1.6,3.1 3.9,6 6.6,8.3 2.7,2.4 5.9,4.3 9.3,5.7 3.4,1.4 7,2.2 10.7,2.6 7.4,0.7 15,-0.8 21.3,-4.5 l 1.2,-0.7 1.1,-0.8 c 0.8,-0.5 1.6,-1.2 2.4,-1.8 1.6,-1.2 3.2,-2.5 4.8,-3.7 3.1,-2.6 6.2,-5.2 9.3,-7.9 6.1,-5.4 12,-11.1 17.7,-16.9 5.8,-5.8 11.5,-11.7 17.1,-17.7 l 1.9,-2 4,3.5 z"
   id="path26" />
</g>
</svg>
