<?xml version="1.0" encoding="UTF-8" standalone="no"?>
<!-- Created with Inkscape (http://www.inkscape.org/) -->

<svg
   xmlns:osb="http://www.openswatchbook.org/uri/2009/osb"
   xmlns:dc="http://purl.org/dc/elements/1.1/"
   xmlns:cc="http://creativecommons.org/ns#"
   xmlns:rdf="http://www.w3.org/1999/02/22-rdf-syntax-ns#"
   xmlns:svg="http://www.w3.org/2000/svg"
   xmlns="http://www.w3.org/2000/svg"
   xmlns:sodipodi="http://sodipodi.sourceforge.net/DTD/sodipodi-0.dtd"
   xmlns:inkscape="http://www.inkscape.org/namespaces/inkscape"
   width="134.9279mm"
   height="95.917641mm"
   viewBox="0 0 134.9279 95.917641"
   version="1.1"
   id="svg8"
   sodipodi:docname="logo.svg"
   inkscape:version="0.92.4 5da689c313, 2019-01-14">
  <defs
     id="defs2">
    <inkscape:path-effect
       pattern-nodetypes="ccccc"
       fuse_tolerance="0"
       vertical_pattern="false"
       prop_units="false"
       tang_offset="0"
       normal_offset="0"
       spacing="0"
       scale_y_rel="false"
       prop_scale="1"
       copytype="single_stretched"
       pattern="m 93.449791,43.685968 c 0.458362,-0.200011 2.197599,-1.367771 7.041489,-1.478923 4.20607,-0.01667 5.85195,1.309107 6.43531,1.475784 -0.6167,0.133342 -2.90543,0.845035 -6.52102,0.944391 -4.690467,0.0049 -6.530752,-0.841249 -6.955779,-0.941252 z"
       is_visible="true"
       id="path-effect7241"
       effect="skeletal" />
    <inkscape:path-effect
       only_selected="false"
       apply_with_weight="true"
       apply_no_weight="true"
       helper_size="0"
       steps="2"
       weight="33.333333"
       is_visible="true"
       id="path-effect7239"
       effect="bspline" />
    <inkscape:path-effect
       pattern-nodetypes="ccccc"
       fuse_tolerance="0"
       vertical_pattern="false"
       prop_units="false"
       tang_offset="0"
       normal_offset="0"
       spacing="0"
       scale_y_rel="false"
       prop_scale="1"
       copytype="single_stretched"
       pattern="m 94.668764,40.274733 c 0.458362,-0.200011 4.493805,-1.037042 9.337696,-1.148194 4.20607,-0.01667 8.35604,1.072872 8.9394,1.239549 -0.6167,0.133342 -5.12604,1.043472 -8.74163,1.142828 -4.690466,0.0049 -9.110439,-1.13418 -9.535466,-1.234183 z"
       is_visible="true"
       id="path-effect7191"
       effect="skeletal" />
    <inkscape:path-effect
       only_selected="false"
       apply_with_weight="true"
       apply_no_weight="true"
       helper_size="0"
       steps="2"
       weight="33.333333"
       is_visible="true"
       id="path-effect7189"
       effect="bspline" />
    <inkscape:path-effect
       effect="skeletal"
       id="path-effect7185"
       is_visible="true"
       pattern="m 93.449791,43.685968 c 0.458362,-0.200011 2.008611,-3.91911 6.852499,-4.030262 4.20607,-0.01667 6.04094,3.860446 6.6243,4.027123 -0.6167,0.133342 -2.81094,3.018398 -6.42653,3.117754 -4.690463,0.0049 -6.625242,-3.014612 -7.050269,-3.114615 z"
       copytype="single_stretched"
       prop_scale="1"
       scale_y_rel="false"
       spacing="0"
       normal_offset="0"
       tang_offset="0"
       prop_units="false"
       vertical_pattern="false"
       fuse_tolerance="0"
       pattern-nodetypes="ccccc" />
    <inkscape:path-effect
       effect="bspline"
       id="path-effect7183"
       is_visible="true"
       weight="33.333333"
       steps="2"
       helper_size="0"
       apply_no_weight="true"
       apply_with_weight="true"
       only_selected="false" />
    <inkscape:path-effect
       pattern-nodetypes="ccccc"
       fuse_tolerance="0"
       vertical_pattern="false"
       prop_units="false"
       tang_offset="0"
       normal_offset="0"
       spacing="0"
       scale_y_rel="false"
       prop_scale="1"
       copytype="single_stretched"
       pattern="m 93.449791,43.685968 c 0.458362,-0.200011 2.008611,-3.91911 6.852499,-4.030262 4.20607,-0.01667 6.04094,3.860446 6.6243,4.027123 -0.6167,0.133342 -2.81094,3.018398 -6.42653,3.117754 -4.690463,0.0049 -6.625242,-3.014612 -7.050269,-3.114615 z"
       is_visible="true"
       id="path-effect6669"
       effect="skeletal" />
    <inkscape:path-effect
       only_selected="false"
       apply_with_weight="true"
       apply_no_weight="true"
       helper_size="0"
       steps="2"
       weight="33.333333"
       is_visible="true"
       id="path-effect6667"
       effect="bspline" />
    <inkscape:path-effect
       effect="skeletal"
       id="path-effect6647"
       is_visible="true"
       pattern="m 93.449791,43.685968 c 0.458362,-0.200011 2.197599,-1.367771 7.041489,-1.478923 4.20607,-0.01667 5.85195,1.309107 6.43531,1.475784 -0.6167,0.133342 -2.90543,0.845035 -6.52102,0.944391 -4.690467,0.0049 -6.530752,-0.841249 -6.955779,-0.941252 z"
       copytype="single_stretched"
       prop_scale="1"
       scale_y_rel="false"
       spacing="0"
       normal_offset="0"
       tang_offset="0"
       prop_units="false"
       vertical_pattern="false"
       fuse_tolerance="0"
       pattern-nodetypes="ccccc" />
    <inkscape:path-effect
       effect="bspline"
       id="path-effect6629"
       is_visible="true"
       weight="33.333333"
       steps="2"
       helper_size="0"
       apply_no_weight="true"
       apply_with_weight="true"
       only_selected="false" />
    <inkscape:path-effect
       effect="skeletal"
       id="path-effect2904"
       is_visible="true"
       pattern="M 0,0 H 1"
       copytype="single_stretched"
       prop_scale="1"
       scale_y_rel="false"
       spacing="0"
       normal_offset="0"
       tang_offset="0"
       prop_units="false"
       vertical_pattern="false"
       fuse_tolerance="0" />
    <linearGradient
       id="linearGradient2900"
       osb:paint="solid">
      <stop
         style="stop-color:#aa4400;stop-opacity:1;"
         offset="0"
         id="stop2898" />
    </linearGradient>
    <linearGradient
       id="linearGradient1437">
      <stop
         id="stop1443"
         offset="0"
         style="stop-color:#000000;stop-opacity:1;" />
      <stop
         id="stop1445"
         offset="1"
         style="stop-color:#aa4400;stop-opacity:0;" />
    </linearGradient>
    <inkscape:path-effect
       effect="bspline"
       id="path-effect832"
       is_visible="true"
       weight="33.333333"
       steps="2"
       helper_size="0"
       apply_no_weight="true"
       apply_with_weight="true"
       only_selected="false" />
    <inkscape:path-effect
       effect="bspline"
       id="path-effect828"
       is_visible="true"
       weight="33.333333"
       steps="2"
       helper_size="0"
       apply_no_weight="true"
       apply_with_weight="true"
       only_selected="false" />
    <filter
       inkscape:collect="always"
       style="color-interpolation-filters:sRGB"
       id="filter7547"
       x="-0.13188073"
       width="1.2637615"
       y="-0.24555529"
       height="1.4911106">
      <feGaussianBlur
         inkscape:collect="always"
         stdDeviation="5.4303642"
         id="feGaussianBlur7549" />
    </filter>
  </defs>
  <sodipodi:namedview
     id="base"
     pagecolor="#ffffff"
     bordercolor="#666666"
     borderopacity="1.0"
     inkscape:pageopacity="0.0"
     inkscape:pageshadow="2"
     inkscape:zoom="1.4"
     inkscape:cx="441.35163"
     inkscape:cy="135.35001"
     inkscape:document-units="mm"
     inkscape:current-layer="layer1"
     showgrid="false"
     inkscape:snap-bbox="true"
     inkscape:bbox-paths="true"
     inkscape:bbox-nodes="true"
     inkscape:snap-bbox-edge-midpoints="true"
     inkscape:snap-bbox-midpoints="true"
     inkscape:window-width="2558"
     inkscape:window-height="1414"
     inkscape:window-x="0"
     inkscape:window-y="24"
     inkscape:window-maximized="1" />
  <metadata
     id="metadata5">
    <rdf:RDF>
      <cc:Work
         rdf:about="">
        <dc:format>image/svg+xml</dc:format>
        <dc:type
           rdf:resource="http://purl.org/dc/dcmitype/StillImage" />
        <dc:title></dc:title>
      </cc:Work>
    </rdf:RDF>
  </metadata>
  <g
     inkscape:label="Layer 1"
     inkscape:groupmode="layer"
     id="layer1"
     transform="translate(-36.994235,-23.090513)">
    <path
       inkscape:path-effect="#path-effect7189;#path-effect7191"
       inkscape:original-d="m 110.55805,56.739434 c 0,0 15.57306,-17.626768 23.35891,-26.439435 6.92966,6.047207 13.85942,12.094994 20.78869,18.142857 -4.59843,5.127595 -13.79613,15.383631 -13.79613,15.383631 0,0 9.29848,10.230292 13.94732,15.345833 -6.22374,6.929298 -12.44751,13.858597 -18.67202,20.788691 C 113.97183,75.240156 91.760284,50.52146 69.547619,25.802083 62.177348,32.794377 54.807084,39.786679 47.436012,46.779761 c 5.292126,5.417594 15.874998,16.252976 15.874998,16.252976 0,0 -11.842761,9.19698 -17.76488,13.796132 8.127065,6.488575 16.253241,12.976916 24.379465,19.465771 8.630719,-8.889003 17.261176,-17.777744 25.891367,-26.666219"
       sodipodi:nodetypes="cccccccccccc"
       inkscape:connector-curvature="0"
       id="path7187"
       d="m 110.52589,56.711025 c -0.13133,0.156767 6.37323,-7.764406 11.45619,-12.485814 2.66095,-2.482851 6.593,-5.959447 11.42274,-6.941715 3.3988,-0.664819 7.251,0.200642 10.46396,2.503919 2.5703,1.819743 4.93817,4.588474 5.71207,8.062112 0.60466,2.930749 -0.29135,5.977971 -1.87179,8.602087 -1.71585,2.728873 -3.91372,4.994608 -6.2026,7.372888 2.17669,2.19718 4.58589,4.566915 6.44312,7.32886 1.62695,2.565441 2.77642,5.741195 2.39705,9.047045 -0.21016,1.697059 -0.80061,3.373731 -1.77803,4.842935 -1.046,1.568269 -2.55987,2.844781 -4.35781,3.579211 -2.24495,0.889819 -4.70578,0.942029 -7.01218,0.486326 -3.4444,-0.66837 -6.6192,-2.216217 -9.57769,-4.062867 -4.29384,-2.664868 -8.17771,-5.851737 -12.08973,-9.195857 -4.58163,-3.912108 -8.95567,-7.923574 -13.53261,-12.095652 -1.83315,-1.670752 -3.691209,-3.365362 -5.551178,-5.039805 -2.644898,-2.386569 -5.298658,-4.738779 -7.999518,-7.025509 -3.912299,-3.308202 -7.815693,-6.48052 -12.070172,-9.044955 -2.971566,-1.782106 -6.07266,-3.249588 -9.321472,-3.829943 -2.216033,-0.390622 -4.485194,-0.374132 -6.472469,0.365538 -2.986644,1.069044 -5.295359,3.910593 -5.821085,6.97905 -0.52992,2.736312 0.622921,5.662133 2.189362,8.129107 1.904602,3.208071 4.495158,6.047734 6.927206,8.783695 -2.959582,2.496632 -5.737376,4.717252 -7.998016,7.471956 -0.951068,1.090864 -1.772093,2.235662 -2.263109,3.49087 -0.458365,1.161465 -0.612588,2.429278 -0.387438,3.607991 0.560674,3.194961 3.139804,5.795124 5.728364,7.610647 3.460614,2.380645 7.496386,3.424183 11.159661,2.940777 5.019188,-0.635448 9.493801,-3.886533 12.643017,-6.367408 5.405701,-4.269818 12.938839,-12.013931 13.089999,-12.164356 -0.296814,0.313778 -7.392447,8.054572 -12.783614,12.541147 -3.128423,2.611551 -7.571295,5.991558 -12.83092,6.817727 -3.899858,0.592225 -8.199363,-0.407854 -11.894739,-2.851804 -2.80802,-1.823303 -5.600757,-4.594295 -6.400249,-8.270534 -0.295478,-1.446232 -0.148981,-2.968519 0.375889,-4.363505 0,0 4e-6,-9e-6 4e-6,-9e-6 0.558318,-1.473757 1.442664,-2.779638 2.445079,-3.954788 2.337641,-2.58794 5.160944,-4.556526 8.010975,-6.584448 -2.518444,-2.343656 -5.227084,-4.783949 -7.354608,-7.695642 -1.823503,-2.667219 -3.108272,-6.012682 -2.599207,-9.466826 0.628179,-3.829027 3.34322,-7.21765 7.033567,-8.62364 0,0 10e-6,-4e-6 10e-6,-4e-6 2.451437,-0.907046 5.099758,-0.978863 7.582235,-0.539244 3.654103,0.639642 7.034058,2.189775 10.108628,4.026083 4.502139,2.676172 8.573401,5.948422 12.426128,9.189092 1.913432,1.607463 3.787237,3.236167 5.620307,4.861557 2.700871,2.402536 5.366103,4.844556 8.002853,7.2636 4.52713,4.152736 8.88815,8.193755 13.41986,12.114008 3.85086,3.327365 7.62673,6.48851 11.75091,9.09255 2.82692,1.774333 5.74447,3.263442 8.82818,3.873169 2.02703,0.392684 4.10558,0.40862 5.88136,-0.308426 1.41258,-0.548687 2.64654,-1.564597 3.5036,-2.812597 0.81642,-1.185498 1.3276,-2.58367 1.52744,-4.009926 0.40734,-2.691022 -0.60378,-5.501739 -2.0294,-7.898819 -1.68222,-2.987584 -3.98717,-5.671571 -6.13783,-8.232495 2.32787,-2.757073 4.50455,-5.238258 6.16866,-8.100854 1.46687,-2.423987 2.37778,-5.117093 1.85543,-7.623815 -0.58997,-3.080226 -2.74148,-5.684654 -5.11211,-7.466873 -2.94851,-2.19209 -6.52186,-3.112738 -9.6943,-2.549478 -4.55947,0.780204 -8.51021,4.104774 -11.24091,6.505359 -4.96841,4.380483 -12.30964,12.690986 -11.78907,12.118302 z"
       style="fill:#c5b358;fill-opacity:0;stroke:#c5b358;stroke-width:5;stroke-linecap:butt;stroke-linejoin:miter;stroke-miterlimit:4;stroke-dasharray:none;stroke-opacity:0" />
    <path
       style="fill:#cfb53b;fill-opacity:1;stroke:#cfb53b;stroke-width:2;stroke-linecap:butt;stroke-linejoin:miter;stroke-miterlimit:4;stroke-dasharray:none;stroke-opacity:1"
       d="m 108.64204,59.035113 c 0.47461,-0.55279 7.21909,-8.69467 12.36179,-13.569726 2.67618,-2.540767 6.8867,-6.471608 12.05337,-7.732498 3.33434,-0.796464 7.33561,-0.18743 10.73035,2.134148 2.55441,1.731242 4.98089,4.472919 5.77118,7.987108 0.60365,2.887184 -0.25302,5.927182 -1.85331,8.595265 -1.69759,2.712059 -3.85554,4.947942 -6.19081,7.375067 2.12698,2.1417 4.58051,4.543066 6.45273,7.317945 1.60444,2.525124 2.78737,5.711547 2.40501,9.061347 -0.20851,1.688892 -0.79503,3.372109 -1.78099,4.854934 -1.0407,1.561024 -2.55382,2.847976 -4.37005,3.590151 -2.23371,0.885017 -4.69407,0.949704 -7.02816,0.48796 -3.41249,-0.6627 -6.57835,-2.188959 -9.58656,-4.067889 -4.24121,-2.633579 -8.07581,-5.76757 -12.09018,-9.201561 -4.53658,-3.876235 -8.78835,-7.776468 -13.52929,-12.100343 -2.569206,-2.342847 -5.282437,-4.8197 -7.989271,-7.223273 -1.871654,-1.664751 -3.71615,-3.273729 -5.565036,-4.836713 -4.069746,-3.435973 -7.899316,-6.519881 -12.074807,-9.029922 -3.043563,-1.820029 -6.120522,-3.247623 -9.310627,-3.812817 -2.244605,-0.39209 -4.492895,-0.358668 -6.443077,0.370949 0,0 -10e-6,3e-6 -10e-6,3e-6 -3.030882,1.088045 -5.26734,3.964012 -5.772686,6.935178 -0.533665,2.74855 0.661451,5.675228 2.184252,8.075407 1.914462,3.244788 4.565179,6.164535 6.915762,8.829438 -3.054146,2.596541 -5.754153,4.77326 -7.994706,7.516333 -0.958019,1.097541 -1.769801,2.231399 -2.25482,3.46747 -0.459329,1.159221 -0.609362,2.413968 -0.390274,3.571276 0.554954,3.220354 3.191584,5.814119 5.716105,7.553546 3.604123,2.435221 7.754695,3.308458 11.366356,2.755978 5.348645,-0.793406 10.137052,-4.382909 13.280119,-6.858129 5.72346,-4.513202 12.384729,-11.295031 13.940587,-12.855539 -1.372233,1.438102 -8.050379,8.671803 -13.566717,13.309968 -3.212059,2.714652 -7.891748,6.39296 -13.482037,7.418311 -3.937821,0.695194 -8.402582,-0.157586 -12.268919,-2.656926 -2.813286,-1.776841 -5.67974,-4.581777 -6.504608,-8.365161 -0.297512,-1.474629 -0.150391,-3.02784 0.390608,-4.45666 0.568992,-1.490159 1.46077,-2.80937 2.480323,-3.998336 2.339701,-2.543521 5.122303,-4.45129 8.039397,-6.487704 -2.446918,-2.245543 -5.211357,-4.705529 -7.359165,-7.626194 -1.793877,-2.62933 -3.120657,-6.011824 -2.597149,-9.545721 0.628227,-3.777302 3.303754,-7.236265 7.101851,-8.676338 2.438177,-0.895942 5.088535,-0.982157 7.617863,-0.528864 3.597267,0.636997 6.961143,2.156254 10.119068,4.049514 4.394849,2.621926 8.372639,5.798215 12.418891,9.207704 2.37253,1.996635 4.717957,4.053149 7.088316,6.176576 2.214323,1.988251 4.422801,4.010245 6.537431,5.946985 4.73518,4.336194 8.9455,8.224901 13.43569,12.094462 3.97772,3.423768 7.6964,6.507468 11.76252,9.060114 2.88162,1.797415 5.77504,3.2474 8.80552,3.835971 2.03816,0.386708 4.08579,0.387008 5.81312,-0.320127 1.39659,-0.547063 2.6024,-1.556867 3.43251,-2.77413 0.80496,-1.176411 1.2989,-2.557466 1.48972,-3.950373 0.40155,-2.670695 -0.6412,-5.452678 -2.0311,-7.781145 -1.6877,-3.022336 -4.03703,-5.785658 -6.14094,-8.329212 2.37401,-2.875151 4.49182,-5.352963 6.11789,-8.228953 1.45598,-2.439239 2.31828,-5.059449 1.80123,-7.440768 -0.58133,-3.030382 -2.74799,-5.561115 -5.05358,-7.230319 -3.03777,-2.168053 -6.69355,-2.847898 -9.75735,-2.182216 -4.83397,1.001596 -9.08654,4.739792 -11.85513,7.185881 -5.31796,4.730133 -12.48023,12.764466 -12.7882,13.102568 z"
       id="path830"
       inkscape:connector-curvature="0"
       sodipodi:nodetypes="cccccccccccc"
       inkscape:original-d="m 108.44138,58.856101 c 0,0 16.98419,-19.037897 25.47558,-28.556102 6.92966,6.047207 13.85942,12.094994 20.78869,18.142857 -4.59843,5.127595 -13.79613,15.383631 -13.79613,15.383631 0,0 9.29848,10.230292 13.94732,15.345833 -6.22374,6.929298 -12.44751,13.858597 -18.67202,20.788691 C 113.97183,75.240156 91.760284,50.52146 69.547619,25.802083 62.177348,32.794377 54.807084,39.786679 47.436012,46.779761 c 5.292126,5.417594 15.874998,16.252976 15.874998,16.252976 0,0 -11.842761,9.19698 -17.76488,13.796132 8.127065,6.488575 16.253241,12.976916 24.379465,19.465771 9.159886,-9.41817 18.319509,-18.836078 27.478867,-28.253719"
       inkscape:path-effect="#path-effect832;#path-effect6647" />
    <path
       inkscape:path-effect="#path-effect7239;#path-effect7241"
       inkscape:original-d="m 108.44138,58.856101 c 0,0 16.98419,-19.037897 25.47558,-28.556102 6.92966,6.047207 13.85942,12.094994 20.78869,18.142857 -4.59843,5.127595 -13.79613,15.383631 -13.79613,15.383631 0,0 9.29848,10.230292 13.94732,15.345833 -6.22374,6.929298 -12.44751,13.858597 -18.67202,20.788691 C 113.97183,75.240156 91.760284,50.52146 69.547619,25.802083 62.177348,32.794377 54.807084,39.786679 47.436012,46.779761 c 5.292126,5.417594 15.874998,16.252976 15.874998,16.252976 0,0 -11.842761,9.19698 -17.76488,13.796132 8.127065,6.488575 16.253241,12.976916 24.379465,19.465771 9.159886,-9.41817 18.319509,-18.836078 27.478867,-28.253719"
       sodipodi:nodetypes="cccccccccccc"
       inkscape:connector-curvature="0"
       id="path7237"
       d="m 108.64204,59.035113 c 0.47461,-0.55279 7.21909,-8.69467 12.36179,-13.569726 2.67618,-2.540767 6.8867,-6.471608 12.05337,-7.732498 3.33434,-0.796464 7.33561,-0.18743 10.73035,2.134148 2.55441,1.731242 4.98089,4.472919 5.77118,7.987108 0.60365,2.887184 -0.25302,5.927182 -1.85331,8.595265 -1.69759,2.712059 -3.85554,4.947942 -6.19081,7.375067 2.12698,2.1417 4.58051,4.543066 6.45273,7.317945 1.60444,2.525124 2.78737,5.711547 2.40501,9.061347 -0.20851,1.688892 -0.79503,3.372109 -1.78099,4.854934 -1.0407,1.561024 -2.55382,2.847976 -4.37005,3.590151 -2.23371,0.885017 -4.69407,0.949704 -7.02816,0.48796 -3.41249,-0.6627 -6.57835,-2.188959 -9.58656,-4.067889 -4.24121,-2.633579 -8.07581,-5.76757 -12.09018,-9.201561 -4.53658,-3.876235 -8.78835,-7.776468 -13.52929,-12.100343 -2.569206,-2.342847 -5.282437,-4.8197 -7.989271,-7.223273 -1.871654,-1.664751 -3.71615,-3.273729 -5.565036,-4.836713 -4.069746,-3.435973 -7.899316,-6.519881 -12.074807,-9.029922 -3.043563,-1.820029 -6.120522,-3.247623 -9.310627,-3.812817 -2.244605,-0.39209 -4.492895,-0.358668 -6.443077,0.370949 0,0 -10e-6,3e-6 -10e-6,3e-6 -3.030882,1.088045 -5.26734,3.964012 -5.772686,6.935178 -0.533665,2.74855 0.661451,5.675228 2.184252,8.075407 1.914462,3.244788 4.565179,6.164535 6.915762,8.829438 -3.054146,2.596541 -5.754153,4.77326 -7.994706,7.516333 -0.958019,1.097541 -1.769801,2.231399 -2.25482,3.46747 -0.459329,1.159221 -0.609362,2.413968 -0.390274,3.571276 0.554954,3.220354 3.191584,5.814119 5.716105,7.553546 3.604123,2.435221 7.754695,3.308458 11.366356,2.755978 5.348645,-0.793406 10.137052,-4.382909 13.280119,-6.858129 5.72346,-4.513202 12.384729,-11.295031 13.940587,-12.855539 -1.372233,1.438102 -8.050379,8.671803 -13.566717,13.309968 -3.212059,2.714652 -7.891748,6.39296 -13.482037,7.418311 -3.937821,0.695194 -8.402582,-0.157586 -12.268919,-2.656926 -2.813286,-1.776841 -5.67974,-4.581777 -6.504608,-8.365161 -0.297512,-1.474629 -0.150391,-3.02784 0.390608,-4.45666 0.568992,-1.490159 1.46077,-2.80937 2.480323,-3.998336 2.339701,-2.543521 5.122303,-4.45129 8.039397,-6.487704 -2.446918,-2.245543 -5.211357,-4.705529 -7.359165,-7.626194 -1.793877,-2.62933 -3.120657,-6.011824 -2.597149,-9.545721 0.628227,-3.777302 3.303754,-7.236265 7.101851,-8.676338 2.438177,-0.895942 5.088535,-0.982157 7.617863,-0.528864 3.597267,0.636997 6.961143,2.156254 10.119068,4.049514 4.394849,2.621926 8.372639,5.798215 12.418891,9.207704 2.37253,1.996635 4.717957,4.053149 7.088316,6.176576 2.214323,1.988251 4.422801,4.010245 6.537431,5.946985 4.73518,4.336194 8.9455,8.224901 13.43569,12.094462 3.97772,3.423768 7.6964,6.507468 11.76252,9.060114 2.88162,1.797415 5.77504,3.2474 8.80552,3.835971 2.03816,0.386708 4.08579,0.387008 5.81312,-0.320127 1.39659,-0.547063 2.6024,-1.556867 3.43251,-2.77413 0.80496,-1.176411 1.2989,-2.557466 1.48972,-3.950373 0.40155,-2.670695 -0.6412,-5.452678 -2.0311,-7.781145 -1.6877,-3.022336 -4.03703,-5.785658 -6.14094,-8.329212 2.37401,-2.875151 4.49182,-5.352963 6.11789,-8.228953 1.45598,-2.439239 2.31828,-5.059449 1.80123,-7.440768 -0.58133,-3.030382 -2.74799,-5.561115 -5.05358,-7.230319 -3.03777,-2.168053 -6.69355,-2.847898 -9.75735,-2.182216 -4.83397,1.001596 -9.08654,4.739792 -11.85513,7.185881 -5.31796,4.730133 -12.48023,12.764466 -12.7882,13.102568 z"
       style="fill:#6f6432;fill-opacity:1;stroke:#6f6432;stroke-width:1;stroke-linecap:butt;stroke-linejoin:miter;stroke-miterlimit:4;stroke-dasharray:none;stroke-opacity:1;filter:url(#filter7547)"
       transform="translate(0,7.9374999)" />
  </g>
</svg>
